# xmcd
#
# Track frame offsets:
#	150
#	11600
#	28997
#	47530
#	61462
#	77087
#	92287
#	110352
#	122077
#	137247
#	149515
#	162732
#	179487
#	190815
#	204035
#
# Disc length: 2931
#
# Revision: 1
# Processed by: cddbd v1.5.1PL0 Copyright (c) Steve Scherf et al.
# Submitted via: dBpowerAMP V4.0
# Normalized: r0:TRMNUM
#
DISCID=cf0b710f
DTITLE=Various Artist - Get in Line and Dance
DYEAR=1997
DGENRE=Country
TTITLE0=Hillbilly Rock, Hillbilly Roll - The Sideliners
TTITLE1=There You Go - Martin White
TTITLE2=The Hurting Part - Shaun Byrne
TTITLE3=Oregon Trail - The Cheap Seats
TTITLE4=Line Dancin' Days - Capricorn
TTITLE5=Good Times Come Around - Simon Richmond
TTITLE6=This Don't Feel Like Dancin' - Bobby Lee
TTITLE7=Love Kept It's Hold On My Heart - Chirs Sayer
TTITLE8=Heart As Big As Texas - Shaun Byrne
TTITLE9=My Heart Keeps Changing My Mind - John Donelly
TTITLE10=Here, There And Everywhere - The Cheap Seats
TTITLE11=Caravan Song - Big Al
TTITLE12=Daddy's Got His Blue Jeans On - Simon Richmond
TTITLE13=You've Been Telling Me Lies - Shaun Byrne
TTITLE14=Let's Here It For The Ladies - Simon Richmond
EXTD=
EXTT0=
EXTT1=
EXTT2=
EXTT3=
EXTT4=
EXTT5=
EXTT6=
EXTT7=
EXTT8=
EXTT9=
EXTT10=
EXTT11=
EXTT12=
EXTT13=
EXTT14=
PLAYORDER=
